# xmcd CD database file
#
# Track frame offsets:
#	182
#	17652
#	39847
#	54537
#	67905
#	85485
#	97960
#	118890
#	133757
#	149172
#	163672
#	182445
#
# Disc length: 2652 seconds
#
# Revision: 0
# Processed by: cddbd v1.5.2PL0 Copyright (c) Steve Scherf et al.
# Submitted via: CDex 1.51
#
DISCID=a30a5a0c
DTITLE=Christian Laborde - L'ivre d'images
DYEAR=1900
DGENRE=Jazz
TTITLE0=L'ivre d'images
TTITLE1=Croque note
TTITLE2=Promenades d'hiver
TTITLE3=Cordier Blues
TTITLE4=Primevère - retour de Paris
TTITLE5=Samba, samba
TTITLE6=Gouttes d'eau
TTITLE7=Le blues de 18h 39
TTITLE8=Partir seul
TTITLE9=Falaises blondes
TTITLE10=Septembre
TTITLE11=Labyrinthe
EXTD=
EXTT0=
EXTT1=
EXTT2=
EXTT3=
EXTT4=
EXTT5=
EXTT6=
EXTT7=
EXTT8=
EXTT9=
EXTT10=
EXTT11=
PLAYORDER=
